<?xml version="1.0" encoding="utf-8"?>
<!-- Generator: Adobe Illustrator 21.1.0, SVG Export Plug-In . SVG Version: 6.00 Build 0)  -->
<svg version="1.1" id="Layer_1" xmlns="http://www.w3.org/2000/svg" xmlns:xlink="http://www.w3.org/1999/xlink" x="0px" y="0px"
	 viewBox="0 0 100 57" style="enable-background:new 0 0 100 57;" xml:space="preserve">
<style type="text/css">
	.st0{fill:#000000;}
</style>
<g>
	<g>
		<path class="st0" d="M50.5,50.2L93.9,7c0.2-0.4,0.1-0.9,0-1.1l-0.1-0.1L51.1,48.4c-0.3,0.3-0.8,0.5-1.2,0.5s-0.9-0.2-1.2-0.5
			L6.3,5.9l0,0C6.3,6,6.2,6,6.2,6C6,6.1,6,6.2,6,6.3c0,0.2,0.1,0.5,0.2,0.6l43.2,43.2c0.2,0.2,0.3,0.2,0.5,0.2
			C50.1,50.4,50.3,50.3,50.5,50.2L50.5,50.2z"/>
		<path class="st0" d="M51.2,50.9L94.6,7.6c0,0,0,0,0.1-0.1c0.5-0.7,0.4-1.8,0-2.3l-0.4-0.4c-0.1-0.1-0.2-0.2-0.3-0.2
			c-0.1,0-0.3,0-0.4,0.1L50.5,47.8C50.3,48,50.1,48,50,48c-0.2,0-0.3-0.1-0.5-0.2L6.6,4.7C6.5,4.6,6.4,4.5,6.2,4.6
			c-0.1,0-0.3,0.1-0.4,0.2L5.5,5.2C5.2,5.4,5,5.8,5,6.2c0,0.1,0,0.1,0,0.2c0,0.5,0.2,0.9,0.5,1.3l43.2,43.2c0.3,0.3,0.8,0.5,1.2,0.5
			C50.4,51.4,50.8,51.2,51.2,50.9z M49.5,50.2L6.2,7C6.1,6.8,6,6.5,6,6.3C6,6.2,6,6.1,6.2,6c0.1,0,0.1-0.1,0.1-0.1l0,0l42.5,42.6
			c0.3,0.3,0.8,0.5,1.2,0.5s0.9-0.2,1.2-0.5L93.8,5.8l0.1,0.1c0.1,0.2,0.2,0.7,0,1.1L50.5,50.2l0,0c-0.2,0.2-0.3,0.2-0.5,0.2
			S49.6,50.3,49.5,50.2z"/>
	</g>
</g>
</svg>
